<svg width="256" height="256" viewBox="0 0 256 256" fill="none" xmlns="http://www.w3.org/2000/svg">
  <defs>
    <linearGradient id="tv-screen" x1="62" y1="74" x2="195" y2="176" gradientUnits="userSpaceOnUse">
      <stop stop-color="#59DFFF"/>
      <stop offset="1" stop-color="#6F74FF"/>
    </linearGradient>
    <linearGradient id="tv-remote" x1="126" y1="144" x2="184" y2="212" gradientUnits="userSpaceOnUse">
      <stop stop-color="#FFFFFF"/>
      <stop offset="1" stop-color="#D8E3FF"/>
    </linearGradient>
  </defs>
  <circle cx="82" cy="80" r="48" fill="#58DFFF" fill-opacity="0.20"/>
  <circle cx="184" cy="182" r="42" fill="#7275FF" fill-opacity="0.16"/>
  <rect x="52" y="70" width="152" height="98" rx="24" fill="#0F1A34" stroke="#90F1E0" stroke-width="8"/>
  <rect x="66" y="84" width="124" height="70" rx="16" fill="url(#tv-screen)"/>
  <path d="M96 188H160" stroke="#C6D7FF" stroke-width="10" stroke-linecap="round"/>
  <rect x="142" y="142" width="44" height="72" rx="18" transform="rotate(14 142 142)" fill="url(#tv-remote)"/>
  <circle cx="164" cy="165" r="10" fill="#5F79FF"/>
  <path d="M160 90L172 106L160 122H132L120 106L132 90H160Z" fill="#E8F7FF" fill-opacity="0.82"/>
  <path d="M154 84L161 74" stroke="#98F2E1" stroke-width="5" stroke-linecap="round"/>
  <path d="M138 84L131 74" stroke="#98F2E1" stroke-width="5" stroke-linecap="round"/>
</svg>
