<svg width="256" height="256" viewBox="0 0 256 256" fill="none" xmlns="http://www.w3.org/2000/svg">
  <defs>
    <linearGradient id="sched-card" x1="60" y1="70" x2="194" y2="190" gradientUnits="userSpaceOnUse">
      <stop stop-color="#FFFFFF"/>
      <stop offset="1" stop-color="#D7E2FF"/>
    </linearGradient>
    <linearGradient id="sched-accent" x1="78" y1="176" x2="190" y2="74" gradientUnits="userSpaceOnUse">
      <stop stop-color="#57DEFF"/>
      <stop offset="1" stop-color="#6F75FF"/>
    </linearGradient>
  </defs>
  <circle cx="84" cy="80" r="46" fill="#57DEFF" fill-opacity="0.20"/>
  <circle cx="184" cy="180" r="42" fill="#6E74FF" fill-opacity="0.16"/>
  <rect x="60" y="66" width="136" height="124" rx="24" fill="url(#sched-card)"/>
  <rect x="60" y="66" width="136" height="32" rx="24" fill="url(#sched-accent)"/>
  <path d="M95 56V84" stroke="#EDF6FF" stroke-width="10" stroke-linecap="round"/>
  <path d="M161 56V84" stroke="#EDF6FF" stroke-width="10" stroke-linecap="round"/>
  <path d="M88 116H168" stroke="#91A9E2" stroke-width="8" stroke-linecap="round"/>
  <path d="M88 138H152" stroke="#A7B9E8" stroke-width="8" stroke-linecap="round"/>
  <path d="M88 160H132" stroke="#BDCBEE" stroke-width="8" stroke-linecap="round"/>
  <path d="M160 142L190 172C192.343 174.343 192.343 178.142 190 180.485L164 206.485L149 210L152.515 195L178.515 169C180.858 166.657 184.657 166.657 187 169Z" fill="url(#sched-accent)"/>
  <path d="M149 210L152.8 194.8L165.2 207.2L149 210Z" fill="#1B2853"/>
</svg>
