<svg width="256" height="256" viewBox="0 0 256 256" fill="none" xmlns="http://www.w3.org/2000/svg">
  <defs>
    <linearGradient id="marucast-tv" x1="60" y1="76" x2="196" y2="174" gradientUnits="userSpaceOnUse">
      <stop stop-color="#67E4FF"/>
      <stop offset="1" stop-color="#7781FF"/>
    </linearGradient>
    <linearGradient id="marucast-phone" x1="134" y1="120" x2="196" y2="204" gradientUnits="userSpaceOnUse">
      <stop stop-color="#FFFFFF"/>
      <stop offset="1" stop-color="#DCE6FF"/>
    </linearGradient>
    <linearGradient id="marucast-heart" x1="92" y1="104" x2="164" y2="160" gradientUnits="userSpaceOnUse">
      <stop stop-color="#FFF4F8"/>
      <stop offset="1" stop-color="#EAF4FF"/>
    </linearGradient>
  </defs>
  <circle cx="82" cy="82" r="46" fill="#63E5FF" fill-opacity="0.20"/>
  <circle cx="186" cy="180" r="42" fill="#7682FF" fill-opacity="0.16"/>
  <rect x="50" y="70" width="148" height="96" rx="24" fill="#101A36" stroke="#97F1E4" stroke-width="8"/>
  <rect x="64" y="84" width="120" height="68" rx="16" fill="url(#marucast-tv)"/>
  <path d="M96 188H160" stroke="#C8D8FF" stroke-width="10" stroke-linecap="round"/>
  <rect x="146" y="132" width="40" height="68" rx="16" transform="rotate(10 146 132)" fill="url(#marucast-phone)"/>
  <circle cx="170" cy="178" r="4.5" fill="#6B79FF"/>
  <path d="M112 112C115.6 105.2 123 101 130.6 101C137.3 101 143.4 104.1 147.4 109.1C151.4 104.1 157.5 101 164.2 101C171.8 101 179.2 105.2 182.8 112C186.7 119.1 185.8 128 180.3 134.2C172.9 142.5 162.6 150.8 147.4 161C132.2 150.8 121.9 142.5 114.5 134.2C109 128 108.1 119.1 112 112Z" fill="url(#marucast-heart)"/>
  <path d="M153 68C169.9 72.1 183.4 85.4 187.7 102.3" stroke="#EAF7FF" stroke-width="6" stroke-linecap="round" opacity="0.82"/>
  <path d="M150 82C161.4 84.9 170.4 93.8 173.3 105.3" stroke="#EAF7FF" stroke-width="6" stroke-linecap="round" opacity="0.6"/>
  <path d="M149 94C156.3 96 162 101.7 164 109" stroke="#EAF7FF" stroke-width="6" stroke-linecap="round" opacity="0.42"/>
</svg>
