<svg width="256" height="256" viewBox="0 0 256 256" fill="none" xmlns="http://www.w3.org/2000/svg">
  <defs>
    <linearGradient id="photoserve-paper" x1="58" y1="66" x2="196" y2="190" gradientUnits="userSpaceOnUse">
      <stop stop-color="#FFFFFF"/>
      <stop offset="1" stop-color="#D8E3FF"/>
    </linearGradient>
    <linearGradient id="photoserve-photo" x1="84" y1="86" x2="170" y2="172" gradientUnits="userSpaceOnUse">
      <stop stop-color="#5CE0FF"/>
      <stop offset="1" stop-color="#6F76FF"/>
    </linearGradient>
    <linearGradient id="photoserve-accent" x1="144" y1="150" x2="208" y2="214" gradientUnits="userSpaceOnUse">
      <stop stop-color="#92F2E3"/>
      <stop offset="1" stop-color="#4FD1C5"/>
    </linearGradient>
  </defs>
  <circle cx="84" cy="82" r="48" fill="#56DEFF" fill-opacity="0.2"/>
  <circle cx="188" cy="180" r="40" fill="#6F75FF" fill-opacity="0.16"/>
  <rect x="54" y="68" width="148" height="120" rx="24" fill="url(#photoserve-paper)"/>
  <path d="M80 94H176" stroke="#A1B6E6" stroke-width="8" stroke-linecap="round"/>
  <path d="M80 112H176" stroke="#C1D0EE" stroke-width="8" stroke-linecap="round"/>
  <rect x="78" y="90" width="84" height="84" rx="18" fill="url(#photoserve-photo)"/>
  <circle cx="104" cy="114" r="10" fill="#D7F8FF"/>
  <path d="M90 156L108 134L124 146L142 124L160 156H90Z" fill="#122044" fill-opacity="0.42"/>
  <path d="M166 150H208V192" stroke="url(#photoserve-accent)" stroke-width="12" stroke-linecap="round" stroke-linejoin="round"/>
  <path d="M190 150V168H208" stroke="url(#photoserve-accent)" stroke-width="12" stroke-linecap="round" stroke-linejoin="round"/>
  <path d="M166 192V174H184" stroke="url(#photoserve-accent)" stroke-width="12" stroke-linecap="round" stroke-linejoin="round"/>
</svg>
